<svg xmlns="http://www.w3.org/2000/svg" version="1.1" xmlns:xlink="http://www.w3.org/1999/xlink" xmlns:svgjs="http://svgjs.com/svgjs" width="1440" height="560" preserveAspectRatio="none" viewBox="0 0 1440 560"><g mask="url(&quot;#SvgjsMask1001&quot;)" fill="none"><rect width="1440" height="560" x="0" y="0" fill="rgba(255, 255, 255, 1)"></rect><path d="M -569.8918881665081,400 C -473.89,354.2 -281.89,192.4 -89.89188816650812,171 C 102.11,149.6 198.11,288 390.1081118334919,293 C 582.11,298 678.11,181.4 870.1081118334919,196 C 1062.11,210.6 1236.13,358.2 1350.1081118334919,366 C 1464.09,373.8 1422.02,261.2 1440,235" stroke="rgba(244, 238, 238, 0.66)" stroke-width="2"></path><path d="M -82.03618047287722,406 C 13.96,352.4 205.96,154.8 397.9638195271228,138 C 589.96,121.2 685.96,304.8 877.9638195271227,322 C 1069.96,339.2 1165.96,190 1357.9638195271227,224 C 1549.96,258 1821.56,484 1837.9638195271227,492 C 1854.37,500 1519.59,309.6 1440,264" stroke="rgba(244, 238, 238, 0.66)" stroke-width="2"></path><path d="M -531.2384631028224,163 C -435.24,211.6 -243.24,383 -51.23846310282232,406 C 140.76,429 236.76,266 428.7615368971777,278 C 620.76,290 716.76,479.6 908.7615368971776,466 C 1100.76,452.4 1282.51,236.4 1388.7615368971776,210 C 1495.01,183.6 1429.75,309.2 1440,334" stroke="rgba(244, 238, 238, 0.66)" stroke-width="2"></path><path d="M -757.6789175755496,164 C -661.68,216.2 -469.68,438 -277.6789175755496,425 C -85.68,412 10.32,102.4 202.32108242445042,99 C 394.32,95.6 490.32,409.4 682.3210824244504,408 C 874.32,406.6 1010.79,93.4 1162.3210824244504,92 C 1313.86,90.6 1384.46,339.2 1440,401" stroke="rgba(244, 238, 238, 0.66)" stroke-width="2"></path></g><defs><mask id="SvgjsMask1001"><rect width="1440" height="560" fill="#ffffff"></rect></mask></defs></svg>